<mxfile host="app.diagrams.net" modified="2024-05-18T04:56:45.189Z" agent="Mozilla/5.0 (Windows NT 10.0; Win64; x64) AppleWebKit/537.36 (KHTML, like Gecko) Chrome/125.0.0.0 Safari/537.36" etag="wdEXobuj3E1WhBd5NAmu" version="24.4.4" type="github">
  <diagram name="Página-1" id="nJeYrzy_Di9gMqPnyB3q">
    <mxGraphModel dx="1434" dy="746" grid="1" gridSize="10" guides="1" tooltips="1" connect="1" arrows="1" fold="1" page="1" pageScale="1" pageWidth="827" pageHeight="1169" math="0" shadow="0">
      <root>
        <mxCell id="0" />
        <mxCell id="1" parent="0" />
        <mxCell id="6kJgmj0lFVBhsv5HSjHA-9" value="" style="rounded=0;whiteSpace=wrap;html=1;" vertex="1" parent="1">
          <mxGeometry x="195" y="50" width="240" height="140" as="geometry" />
        </mxCell>
        <mxCell id="6kJgmj0lFVBhsv5HSjHA-1" value="Tela Emissao Carbono/Consumo Eletricidade" style="rounded=1;whiteSpace=wrap;html=1;" vertex="1" parent="1">
          <mxGeometry x="100" y="270" width="120" height="60" as="geometry" />
        </mxCell>
        <mxCell id="6kJgmj0lFVBhsv5HSjHA-2" value="" style="endArrow=classic;html=1;rounded=0;" edge="1" parent="1">
          <mxGeometry width="50" height="50" relative="1" as="geometry">
            <mxPoint x="220" y="300" as="sourcePoint" />
            <mxPoint x="300" y="300" as="targetPoint" />
          </mxGeometry>
        </mxCell>
        <mxCell id="6kJgmj0lFVBhsv5HSjHA-6" style="edgeStyle=orthogonalEdgeStyle;rounded=0;orthogonalLoop=1;jettySize=auto;html=1;" edge="1" parent="1" source="6kJgmj0lFVBhsv5HSjHA-3" target="6kJgmj0lFVBhsv5HSjHA-5">
          <mxGeometry relative="1" as="geometry" />
        </mxCell>
        <mxCell id="6kJgmj0lFVBhsv5HSjHA-10" style="edgeStyle=orthogonalEdgeStyle;rounded=0;orthogonalLoop=1;jettySize=auto;html=1;entryX=0.5;entryY=1;entryDx=0;entryDy=0;" edge="1" parent="1" source="6kJgmj0lFVBhsv5HSjHA-3" target="6kJgmj0lFVBhsv5HSjHA-9">
          <mxGeometry relative="1" as="geometry" />
        </mxCell>
        <mxCell id="6kJgmj0lFVBhsv5HSjHA-3" value="api rest" style="dashed=0;outlineConnect=0;html=1;align=center;labelPosition=center;verticalLabelPosition=bottom;verticalAlign=top;shape=mxgraph.weblogos.java" vertex="1" parent="1">
          <mxGeometry x="300" y="267.5" width="30" height="65" as="geometry" />
        </mxCell>
        <mxCell id="6kJgmj0lFVBhsv5HSjHA-5" value="oracle db" style="sketch=0;pointerEvents=1;shadow=0;dashed=0;html=1;strokeColor=none;fillColor=#DF8C42;labelPosition=center;verticalLabelPosition=bottom;verticalAlign=top;align=center;outlineConnect=0;shape=mxgraph.veeam2.oracle_db;" vertex="1" parent="1">
          <mxGeometry x="414" y="276.5" width="56.5" height="47" as="geometry" />
        </mxCell>
        <mxCell id="6kJgmj0lFVBhsv5HSjHA-8" value="A ideia principal aqui é que a tela vai estar batendo em um endpoint tipo &quot;previsao&quot; &quot;consumo&quot; que puxara os dados de emissao e consumo da empresa que estiver logada" style="text;html=1;whiteSpace=wrap;overflow=hidden;rounded=0;" vertex="1" parent="1">
          <mxGeometry x="205" y="60" width="180" height="120" as="geometry" />
        </mxCell>
        <mxCell id="6kJgmj0lFVBhsv5HSjHA-14" style="edgeStyle=orthogonalEdgeStyle;rounded=0;orthogonalLoop=1;jettySize=auto;html=1;entryX=0;entryY=0.5;entryDx=0;entryDy=0;" edge="1" parent="1" source="6kJgmj0lFVBhsv5HSjHA-11" target="6kJgmj0lFVBhsv5HSjHA-13">
          <mxGeometry relative="1" as="geometry" />
        </mxCell>
        <mxCell id="6kJgmj0lFVBhsv5HSjHA-11" value="machine learning" style="image;aspect=fixed;html=1;points=[];align=center;fontSize=12;image=img/lib/azure2/ai_machine_learning/Machine_Learning.svg;" vertex="1" parent="1">
          <mxGeometry x="414" y="440" width="64" height="68" as="geometry" />
        </mxCell>
        <mxCell id="6kJgmj0lFVBhsv5HSjHA-12" style="edgeStyle=orthogonalEdgeStyle;rounded=0;orthogonalLoop=1;jettySize=auto;html=1;entryX=0.566;entryY=1.138;entryDx=0;entryDy=0;entryPerimeter=0;" edge="1" parent="1" source="6kJgmj0lFVBhsv5HSjHA-11" target="6kJgmj0lFVBhsv5HSjHA-5">
          <mxGeometry relative="1" as="geometry">
            <Array as="points">
              <mxPoint x="446" y="385" />
              <mxPoint x="500" y="385" />
              <mxPoint x="500" y="330" />
            </Array>
          </mxGeometry>
        </mxCell>
        <mxCell id="6kJgmj0lFVBhsv5HSjHA-13" value="&lt;h1 style=&quot;margin-top: 0px;&quot;&gt;Heading&lt;/h1&gt;&lt;p&gt;aqui a ideia é que o modeloo vai estar treinado e pronto para fazer a previsao com base nos dados, que foram inputados anteriormente. entao o modeloo ja preveu e salvou no banco&lt;/p&gt;&lt;p&gt;&lt;br&gt;&lt;/p&gt;" style="text;html=1;whiteSpace=wrap;overflow=hidden;rounded=0;" vertex="1" parent="1">
          <mxGeometry x="540" y="414" width="180" height="146" as="geometry" />
        </mxCell>
      </root>
    </mxGraphModel>
  </diagram>
</mxfile>
